<mxfile host="app.diagrams.net" modified="2024-05-11T19:32:40.550Z" agent="Mozilla/5.0 (Windows NT 10.0; Win64; x64) AppleWebKit/537.36 (KHTML, like Gecko) Chrome/124.0.0.0 Safari/537.36" etag="w5YgV8emwBCScXmppUHS" version="24.4.0" type="device">
  <diagram name="Page-1" id="ZQqSJOhStYYwJh2J9s3g">
    <mxGraphModel dx="2876" dy="2272" grid="1" gridSize="10" guides="1" tooltips="1" connect="1" arrows="1" fold="1" page="1" pageScale="1" pageWidth="827" pageHeight="1169" math="0" shadow="0">
      <root>
        <mxCell id="0" />
        <mxCell id="1" parent="0" />
        <mxCell id="3hNTsZM3kZNJW-mxkFeV-19" value="" style="endArrow=classic;startArrow=classic;html=1;rounded=0;exitX=0.5;exitY=0;exitDx=0;exitDy=0;exitPerimeter=0;entryX=0.499;entryY=0.993;entryDx=0;entryDy=0;entryPerimeter=0;" edge="1" parent="1" source="3hNTsZM3kZNJW-mxkFeV-18" target="3hNTsZM3kZNJW-mxkFeV-16">
          <mxGeometry width="50" height="50" relative="1" as="geometry">
            <mxPoint x="-30" y="605" as="sourcePoint" />
            <mxPoint x="20" y="555" as="targetPoint" />
          </mxGeometry>
        </mxCell>
        <mxCell id="3hNTsZM3kZNJW-mxkFeV-1" value="Controller Layer" style="rounded=1;whiteSpace=wrap;html=1;labelPosition=center;verticalLabelPosition=top;align=center;verticalAlign=bottom;fillColor=#dae8fc;strokeColor=#6c8ebf;" vertex="1" parent="1">
          <mxGeometry x="-360" y="120" width="120" height="290" as="geometry" />
        </mxCell>
        <mxCell id="3hNTsZM3kZNJW-mxkFeV-2" value="/signup" style="rounded=1;whiteSpace=wrap;html=1;fillColor=#d5e8d4;strokeColor=#82b366;" vertex="1" parent="1">
          <mxGeometry x="-345" y="170" width="90" height="60" as="geometry" />
        </mxCell>
        <mxCell id="3hNTsZM3kZNJW-mxkFeV-3" value="/login" style="rounded=1;whiteSpace=wrap;html=1;fillColor=#d5e8d4;strokeColor=#82b366;" vertex="1" parent="1">
          <mxGeometry x="-345" y="310" width="90" height="60" as="geometry" />
        </mxCell>
        <mxCell id="3hNTsZM3kZNJW-mxkFeV-40" style="edgeStyle=orthogonalEdgeStyle;rounded=0;orthogonalLoop=1;jettySize=auto;html=1;entryX=0;entryY=0.5;entryDx=0;entryDy=0;" edge="1" parent="1" source="3hNTsZM3kZNJW-mxkFeV-4" target="3hNTsZM3kZNJW-mxkFeV-1">
          <mxGeometry relative="1" as="geometry" />
        </mxCell>
        <mxCell id="3hNTsZM3kZNJW-mxkFeV-4" value="User" style="shape=umlActor;verticalLabelPosition=bottom;verticalAlign=top;html=1;outlineConnect=0;" vertex="1" parent="1">
          <mxGeometry x="-530" y="235" width="30" height="60" as="geometry" />
        </mxCell>
        <mxCell id="3hNTsZM3kZNJW-mxkFeV-7" value="&lt;span style=&quot;background-color: rgb(255, 255, 255);&quot;&gt;Service Layer&lt;/span&gt;" style="rounded=1;whiteSpace=wrap;html=1;labelPosition=center;verticalLabelPosition=top;align=center;verticalAlign=bottom;fillColor=#dae8fc;strokeColor=#6c8ebf;labelBackgroundColor=#dae8fc;" vertex="1" parent="1">
          <mxGeometry x="-80" y="-90" width="440" height="260" as="geometry" />
        </mxCell>
        <mxCell id="3hNTsZM3kZNJW-mxkFeV-29" style="edgeStyle=orthogonalEdgeStyle;rounded=0;orthogonalLoop=1;jettySize=auto;html=1;exitX=1;exitY=0.75;exitDx=0;exitDy=0;entryX=0;entryY=0.75;entryDx=0;entryDy=0;" edge="1" parent="1" source="3hNTsZM3kZNJW-mxkFeV-8" target="3hNTsZM3kZNJW-mxkFeV-10">
          <mxGeometry relative="1" as="geometry" />
        </mxCell>
        <mxCell id="3hNTsZM3kZNJW-mxkFeV-30" value="Validate Password" style="edgeLabel;html=1;align=center;verticalAlign=middle;resizable=0;points=[];labelBackgroundColor=#d9e7fb;" vertex="1" connectable="0" parent="3hNTsZM3kZNJW-mxkFeV-29">
          <mxGeometry x="-0.0214" y="1" relative="1" as="geometry">
            <mxPoint as="offset" />
          </mxGeometry>
        </mxCell>
        <mxCell id="3hNTsZM3kZNJW-mxkFeV-8" value="Auth Service" style="rounded=1;whiteSpace=wrap;html=1;fillColor=#d5e8d4;strokeColor=#82b366;" vertex="1" parent="1">
          <mxGeometry x="-30" y="-60" width="100" height="200" as="geometry" />
        </mxCell>
        <mxCell id="3hNTsZM3kZNJW-mxkFeV-10" value="Password Hashing Service (Bcrypt)" style="rounded=1;whiteSpace=wrap;html=1;fillColor=#d5e8d4;strokeColor=#82b366;" vertex="1" parent="1">
          <mxGeometry x="210" y="-60" width="100" height="200" as="geometry" />
        </mxCell>
        <mxCell id="3hNTsZM3kZNJW-mxkFeV-13" style="rounded=0;orthogonalLoop=1;jettySize=auto;html=1;exitX=1;exitY=0.5;exitDx=0;exitDy=0;entryX=0;entryY=0.25;entryDx=0;entryDy=0;" edge="1" parent="1" source="3hNTsZM3kZNJW-mxkFeV-2" target="3hNTsZM3kZNJW-mxkFeV-8">
          <mxGeometry relative="1" as="geometry" />
        </mxCell>
        <mxCell id="3hNTsZM3kZNJW-mxkFeV-14" value="Create User if&lt;div&gt;not in DB&lt;/div&gt;" style="edgeLabel;html=1;align=center;verticalAlign=middle;resizable=0;points=[];" vertex="1" connectable="0" parent="3hNTsZM3kZNJW-mxkFeV-13">
          <mxGeometry x="-0.0053" relative="1" as="geometry">
            <mxPoint as="offset" />
          </mxGeometry>
        </mxCell>
        <mxCell id="3hNTsZM3kZNJW-mxkFeV-16" value="&lt;span style=&quot;background-color: rgb(255, 255, 255);&quot;&gt;Repository Layer&lt;/span&gt;" style="rounded=1;whiteSpace=wrap;html=1;labelPosition=center;verticalLabelPosition=bottom;align=center;verticalAlign=top;fillColor=#dae8fc;strokeColor=#6c8ebf;" vertex="1" parent="1">
          <mxGeometry x="-75" y="405" width="190" height="146" as="geometry" />
        </mxCell>
        <mxCell id="3hNTsZM3kZNJW-mxkFeV-17" value="JPA Repository" style="rounded=1;whiteSpace=wrap;html=1;fillColor=#d5e8d4;strokeColor=#82b366;" vertex="1" parent="1">
          <mxGeometry x="-45" y="435" width="130" height="90" as="geometry" />
        </mxCell>
        <mxCell id="3hNTsZM3kZNJW-mxkFeV-18" value="Postgres DB&lt;br&gt;(auth.user_credential)" style="shape=cylinder3;whiteSpace=wrap;html=1;boundedLbl=1;backgroundOutline=1;size=15;fillColor=#f8cecc;strokeColor=#b85450;" vertex="1" parent="1">
          <mxGeometry x="-45" y="615" width="130" height="140" as="geometry" />
        </mxCell>
        <mxCell id="3hNTsZM3kZNJW-mxkFeV-23" value="" style="endArrow=classic;html=1;rounded=0;entryX=0;entryY=0.25;entryDx=0;entryDy=0;" edge="1" parent="1" target="3hNTsZM3kZNJW-mxkFeV-10">
          <mxGeometry width="50" height="50" relative="1" as="geometry">
            <mxPoint x="70" y="-10" as="sourcePoint" />
            <mxPoint x="120" y="-60" as="targetPoint" />
          </mxGeometry>
        </mxCell>
        <mxCell id="3hNTsZM3kZNJW-mxkFeV-24" value="Hash Password" style="edgeLabel;html=1;align=center;verticalAlign=middle;resizable=0;points=[];labelBackgroundColor=#dae8fc;" vertex="1" connectable="0" parent="3hNTsZM3kZNJW-mxkFeV-23">
          <mxGeometry x="-0.0424" relative="1" as="geometry">
            <mxPoint as="offset" />
          </mxGeometry>
        </mxCell>
        <mxCell id="3hNTsZM3kZNJW-mxkFeV-25" value="" style="endArrow=classic;html=1;rounded=0;exitX=0;exitY=0.5;exitDx=0;exitDy=0;" edge="1" parent="1" source="3hNTsZM3kZNJW-mxkFeV-10">
          <mxGeometry width="50" height="50" relative="1" as="geometry">
            <mxPoint x="207.89999999999964" y="29.999999999999773" as="sourcePoint" />
            <mxPoint x="70" y="40.274614156466214" as="targetPoint" />
          </mxGeometry>
        </mxCell>
        <mxCell id="3hNTsZM3kZNJW-mxkFeV-26" value="Hashed Password&lt;div&gt;with salt&lt;/div&gt;" style="edgeLabel;html=1;align=center;verticalAlign=middle;resizable=0;points=[];labelBackgroundColor=#dae8fc;" vertex="1" connectable="0" parent="3hNTsZM3kZNJW-mxkFeV-25">
          <mxGeometry x="-0.0424" relative="1" as="geometry">
            <mxPoint as="offset" />
          </mxGeometry>
        </mxCell>
        <mxCell id="3hNTsZM3kZNJW-mxkFeV-34" value="" style="endArrow=classic;startArrow=classic;html=1;rounded=0;entryX=0.5;entryY=1;entryDx=0;entryDy=0;exitX=0.5;exitY=0;exitDx=0;exitDy=0;" edge="1" parent="1" source="3hNTsZM3kZNJW-mxkFeV-16" target="3hNTsZM3kZNJW-mxkFeV-8">
          <mxGeometry width="50" height="50" relative="1" as="geometry">
            <mxPoint x="40" y="220" as="sourcePoint" />
            <mxPoint x="90" y="170" as="targetPoint" />
          </mxGeometry>
        </mxCell>
        <mxCell id="3hNTsZM3kZNJW-mxkFeV-38" style="rounded=1;orthogonalLoop=1;jettySize=auto;html=1;entryX=1;entryY=0.5;entryDx=0;entryDy=0;edgeStyle=orthogonalEdgeStyle;curved=0;dashed=1;strokeColor=#999999;" edge="1" parent="1" source="3hNTsZM3kZNJW-mxkFeV-36" target="3hNTsZM3kZNJW-mxkFeV-1">
          <mxGeometry relative="1" as="geometry">
            <Array as="points">
              <mxPoint x="160" y="483" />
              <mxPoint x="160" y="265" />
            </Array>
          </mxGeometry>
        </mxCell>
        <mxCell id="3hNTsZM3kZNJW-mxkFeV-36" value="Global Exception&lt;div&gt;Handler&lt;/div&gt;&lt;div&gt;@ControllerAdvice&lt;/div&gt;" style="ellipse;whiteSpace=wrap;html=1;aspect=fixed;fillColor=#d5e8d4;strokeColor=#82b366;" vertex="1" parent="1">
          <mxGeometry x="277" y="408" width="140" height="140" as="geometry" />
        </mxCell>
        <mxCell id="3hNTsZM3kZNJW-mxkFeV-39" style="rounded=1;orthogonalLoop=1;jettySize=auto;html=1;entryX=0.448;entryY=0.024;entryDx=0;entryDy=0;dashed=1;strokeColor=#999999;entryPerimeter=0;exitX=0.5;exitY=1;exitDx=0;exitDy=0;" edge="1" parent="1" source="3hNTsZM3kZNJW-mxkFeV-7" target="3hNTsZM3kZNJW-mxkFeV-36">
          <mxGeometry relative="1" as="geometry">
            <mxPoint x="287" y="493" as="sourcePoint" />
            <mxPoint x="-230" y="275" as="targetPoint" />
          </mxGeometry>
        </mxCell>
        <mxCell id="3hNTsZM3kZNJW-mxkFeV-41" style="rounded=0;orthogonalLoop=1;jettySize=auto;html=1;entryX=-0.015;entryY=0.909;entryDx=0;entryDy=0;entryPerimeter=0;exitX=1;exitY=0.5;exitDx=0;exitDy=0;" edge="1" parent="1" source="3hNTsZM3kZNJW-mxkFeV-3" target="3hNTsZM3kZNJW-mxkFeV-8">
          <mxGeometry relative="1" as="geometry" />
        </mxCell>
      </root>
    </mxGraphModel>
  </diagram>
</mxfile>
